<?xml version="1.0" encoding="UTF-8"?>
<svg version="1.1" xmlns="http://www.w3.org/2000/svg" width="1254" height="1254">
<path d="M0 0 C413.82 0 827.64 0 1254 0 C1254 413.82 1254 827.64 1254 1254 C840.18 1254 426.36 1254 0 1254 C0 840.18 0 426.36 0 0 Z " fill="#FDFDFD" transform="translate(0,0)"/>
<path d="M0 0 C12.12128578 10.13288588 23.38685127 21.45465532 33 34 C33.77085937 34.95390625 34.54171875 35.9078125 35.3359375 36.890625 C72.38377228 83.40494122 90.73332703 142.637626 90.39111328 201.70898438 C90.37500431 204.99911921 90.39109596 208.28802635 90.41015625 211.578125 C90.44175896 242.89596875 85.80726037 276.14847939 73 305 C72.45318777 306.41468852 71.91110426 307.83121903 71.375 309.25 C63.60096515 328.56818434 53.81160821 347.27167882 40 363 C39.30648437 363.80179688 38.61296875 364.60359375 37.8984375 365.4296875 C35.63876494 367.99277899 33.33073114 370.5014257 31 373 C30.20207031 373.87527344 29.40414062 374.75054688 28.58203125 375.65234375 C13.28036052 391.78738838 -6.27906261 402.45404923 -27 410 C-28.03398926 410.38285156 -28.03398926 410.38285156 -29.08886719 410.7734375 C-40.85826435 415.08621433 -52.66894794 417.81181748 -65 420 C-34.37241424 420.68474882 -8.43355949 416.84795422 19.5859375 404.03125 C22 403 22 403 24 403 C22.72349119 406.46415854 21.24477238 409.34972719 19.12890625 412.37109375 C18.56026855 413.18570068 17.99163086 414.00030762 17.40576172 414.83959961 C16.79748535 415.69690674 16.18920898 416.55421387 15.5625 417.4375 C14.93359863 418.32767822 14.30469727 419.21785645 13.65673828 420.13500977 C4.85663266 432.50980975 -4.46641527 444.06049678 -15 455 C-15.50176758 455.52368164 -16.00353516 456.04736328 -16.52050781 456.58691406 C-23.27560012 463.60265302 -30.26608906 470.05398128 -38 476 C-38.54994629 476.42635742 -39.09989258 476.85271484 -39.66650391 477.29199219 C-62.30224063 494.74469177 -87.90438168 508.06428406 -115.75 514.8125 C-116.55203857 515.00739014 -117.35407715 515.20228027 -118.18041992 515.40307617 C-131.45006752 518.42939343 -144.68685162 519.46583862 -158.25 519.5 C-159.03515991 519.50400818 -159.82031982 519.50801636 -160.62927246 519.512146 C-181.53153473 519.53788899 -201.68379695 515.65015314 -222 511 C-211.57686982 516.46105491 -201.17587713 521.27470762 -190 525 C-189.11812012 525.29825684 -188.23624023 525.59651367 -187.32763672 525.90380859 C-173.33465138 530.55540819 -160.03802818 533.17526975 -145.2980957 533.81396484 C-142.80788715 534.0155519 -140.43905612 534.46757749 -138 535 C-139 537 -139 537 -142.09765625 538.18359375 C-143.41686296 538.60910127 -144.73862985 539.02673145 -146.0625 539.4375 C-147.36639894 539.85124971 -148.6697839 540.26662264 -149.97265625 540.68359375 C-150.63628174 540.89540283 -151.29990723 541.10721191 -151.98364258 541.32543945 C-153.99776929 541.99925373 -155.97242057 542.74179016 -157.953125 543.5078125 C-162.13215723 545.09457452 -166.36442062 546.30946013 -170.6875 547.4375 C-171.49550049 547.64922852 -172.30350098 547.86095703 -173.13598633 548.07910156 C-189.52249822 552.26235807 -205.79727587 555.15171012 -222.72265625 555.16796875 C-223.94093613 555.17129715 -225.159216 555.17462555 -226.41441345 555.17805481 C-228.98712794 555.18310324 -231.55984893 555.18546378 -234.13256836 555.18530273 C-238.02534076 555.18747922 -241.91782489 555.20563011 -245.81054688 555.22460938 C-262.01977129 555.26208855 -276.76541697 554.82175262 -292.35546875 550.0625 C-296.27393381 548.92013934 -300.20589514 548.01235006 -304.1875 547.125 C-310.5456278 545.67817918 -316.77764738 543.94973176 -323 542 C-323.76465576 541.76297363 -324.52931152 541.52594727 -325.31713867 541.28173828 C-329.96001177 539.79452461 -334.35259385 537.99633571 -338.78564453 535.97265625 C-342.26655308 534.44366621 -345.8405992 533.22451232 -349.4375 532 C-356.52819746 529.54325813 -363.60141001 527.04271089 -370.4140625 523.87890625 C-375.48577761 522.15513601 -380.77331867 523.37489942 -386 524 C-387.02552979 524.11770752 -387.02552979 524.11770752 -388.07177734 524.23779297 C-428.31500837 529.05314452 -471.09431261 548.09431261 -500 577 C-510.20041259 579.03226611 -522.02008188 574.41895453 -530.48046875 568.796875 C-531.31191406 568.20390625 -532.14335938 567.6109375 -533 567 C-531.42900109 562.62807541 -528.0276623 560.21764998 -524.5 557.4375 C-523.83492432 556.9122876 -523.16984863 556.3870752 -522.48461914 555.84594727 C-488.83274889 529.8413426 -441.59306949 511.25901288 -399.33984375 506.3984375 C-396.16235268 506.36847449 -396.16235268 506.36847449 -395 505 C-393.62262969 504.72769017 -392.23442478 504.50960369 -390.84375 504.31640625 C-389.55597656 504.13174805 -389.55597656 504.13174805 -388.2421875 503.94335938 C-386.88480469 503.75483398 -386.88480469 503.75483398 -385.5 503.5625 C-379.65766052 502.74819162 -373.91371414 501.81624003 -368.16601562 500.48413086 C-364.63306711 499.69447386 -361.06855562 499.10379567 -357.5 498.5 C-352.97347943 497.72163527 -348.47203426 496.93002217 -344 495.875 C-341.22000856 495.22119704 -338.53153192 494.82012989 -335.6875 494.5625 C-331.24078575 494.11555598 -327.08392733 493.06590061 -322.765625 491.9375 C-318.07306975 490.76922898 -313.35353325 489.76088307 -308.625 488.75 C-286.4981469 483.97106919 -264.51581069 479.09330695 -243 472 C-241.20272461 471.4124292 -241.20272461 471.4124292 -239.36914062 470.81298828 C-191.40396206 455.07457499 -144.59309762 434.40755905 -104 404 C-103.45972168 403.59716797 -102.91944336 403.19433594 -102.36279297 402.77929688 C-82.13608047 387.65271248 -61.99244788 370.67045037 -46.26171875 350.81640625 C-44.27396094 348.34114997 -42.21478343 345.95140327 -40.11865234 343.56811523 C-20.7729208 321.40300041 -6.25700062 294.71062956 6 268.11816406 C6.97747591 266.04770972 8.00810991 264.01279504 9.0546875 261.9765625 C11.09854437 257.92396657 12.702765 253.76279032 14.25 249.5 C14.518125 248.77296875 14.78625 248.0459375 15.0625 247.296875 C15.71243824 245.53275692 16.3568225 243.76659419 17 242 C15.53005651 243.46994349 14.82300588 245.20551306 13.8828125 247.05859375 C-5.4840725 284.8662147 -30.48245643 317.67258184 -60.47949219 347.66479492 C-62.00486713 349.19237416 -63.52200672 350.72783582 -65.0390625 352.26367188 C-71.36711271 358.62779533 -77.96060462 364.4175315 -85 370 C-86.29395273 371.0725086 -87.58471416 372.14888847 -88.87109375 373.23046875 C-109.6348955 390.518809 -132.46622401 405.06948776 -156.16308594 417.99560547 C-157.93995481 418.96716827 -159.7084301 419.95403344 -161.4765625 420.94140625 C-177.4839476 429.78912456 -194.33988156 437.01578416 -211.25 443.9375 C-212.8901709 444.61002808 -212.8901709 444.61002808 -214.56347656 445.29614258 C-221.62498821 448.14906651 -228.74566065 450.68295217 -236 453 C-236.70431152 453.22518311 -237.40862305 453.45036621 -238.13427734 453.68237305 C-240.61839868 454.46770313 -243.1080828 455.23484805 -245.59765625 456.00268555 C-249.11763601 457.09176017 -252.62698066 458.20143671 -256.12109375 459.37109375 C-280.79800143 467.5546045 -306.2354078 472.92140428 -331.77545166 477.59124756 C-335.07111645 478.19681364 -338.36483034 478.81273437 -341.65869141 479.42802429 C-346.04273533 480.2466947 -350.42752575 481.0613291 -354.8125 481.875 C-355.66080383 482.0325174 -356.50910767 482.19003479 -357.38311768 482.35232544 C-359.7823767 482.79686532 -362.18210669 483.23875652 -364.58203125 483.6796875 C-365.66565193 483.88075859 -365.66565193 483.88075859 -366.77116394 484.08589172 C-371.76972174 485 -371.76972174 485 -374 485 C-365.55991627 460.94141081 -336.67463494 437.51604163 -317 423 C-315.98421875 422.18917969 -314.9684375 421.37835937 -313.921875 420.54296875 C-296.15071124 406.36622379 -276.221839 396.15608145 -256 386 C-255.01765381 385.5054834 -254.03530762 385.0109668 -253.02319336 384.50146484 C-247.46751811 381.71227057 -241.93457286 379.09552114 -236.1015625 376.91796875 C-229.39572777 374.40925386 -223.01295197 371.61559918 -216.64453125 368.34375 C-213.47818497 366.73485322 -210.27998697 365.36150402 -207 364 C-199.51227841 360.79138246 -192.26984402 357.15906298 -185.02148438 353.44726562 C-184.17263672 353.01736328 -183.32378906 352.58746094 -182.44921875 352.14453125 C-181.68955811 351.75628174 -180.92989746 351.36803223 -180.1472168 350.96801758 C-178.10295057 350.04641262 -176.18847955 349.4651256 -174 349 C-173.70692527 357.09677086 -174.59524453 364.86926992 -175.75 372.875 C-175.90726563 374.06480469 -176.06453125 375.25460937 -176.2265625 376.48046875 C-177.34350495 384.34202522 -179.21912017 391.56327904 -182 399 C-181.34 399 -180.68 399 -180 399 C-179.84072021 398.45907715 -179.68144043 397.9181543 -179.51733398 397.36083984 C-177.65169665 391.37254888 -175.13505075 386.0808802 -172.0625 380.625 C-171.58087402 379.76213379 -171.09924805 378.89926758 -170.60302734 378.01025391 C-158.71775978 356.94353086 -145.2110108 336.98218437 -129 319 C-128.49581543 318.43941895 -127.99163086 317.87883789 -127.47216797 317.30126953 C-119.73581389 308.73505583 -111.90332059 300.13895343 -103.125 292.625 C-94.7539852 285.44256742 -87.1387492 277.39266123 -80 269 C-79.02616082 267.88807657 -78.05074568 266.77753246 -77.07421875 265.66796875 C-41.22023845 224.83993282 -11.83092147 177.05698686 2.03466797 124.19604492 C2.3964917 122.82089722 2.3964917 122.82089722 2.765625 121.41796875 C2.97993164 120.59063232 3.19423828 119.7632959 3.41503906 118.91088867 C4 117 4 117 5 116 C12.68778327 81.25580935 12.23951268 46.31818995 3 12 C2.41197774 9.66784391 1.82819809 7.33461114 1.25 5 C1.00765625 4.030625 0.7653125 3.06125 0.515625 2.0625 C0.26039063 1.0415625 0.26039063 1.0415625 0 0 Z " fill="#0FB3AB" transform="translate(915,384)"/>
<path d="M0 0 C1.68015063 -0.0041762 3.36029844 -0.00965529 5.04044104 -0.01631981 C9.6432284 -0.03075529 14.24583642 -0.02653564 18.84863353 -0.019153 C23.81803611 -0.01441901 28.78740001 -0.02693315 33.75679016 -0.03717041 C43.48625137 -0.05435852 53.215648 -0.05519848 62.94512045 -0.04995751 C70.85292123 -0.04591502 78.76070294 -0.0473603 86.66850281 -0.05270576 C87.79425692 -0.05345419 88.92001103 -0.05420261 90.0798789 -0.05497371 C92.36687251 -0.05650519 94.65386613 -0.05804354 96.94085974 -0.05958868 C118.382771 -0.07331348 139.82464577 -0.0678759 161.2665562 -0.05640347 C180.88261475 -0.04646856 200.49857901 -0.05941627 220.11462301 -0.08333766 C240.25969228 -0.10771902 260.40471762 -0.11733905 280.54980135 -0.11068493 C291.85848006 -0.1071909 303.16708623 -0.10943706 314.47575378 -0.12693596 C324.1012742 -0.14164576 333.72667098 -0.1423092 343.35218894 -0.12486505 C348.26269006 -0.11634313 353.17297017 -0.11423471 358.08345985 -0.1295166 C362.58024429 -0.14333778 367.07661787 -0.13863365 371.57337838 -0.11927737 C373.19842577 -0.1155092 374.82350587 -0.11846285 376.44852418 -0.12888902 C384.87004782 -0.17907168 392.13205963 -0.06962588 399.52697754 4.38768005 C400.83215332 5.07410583 400.83215332 5.07410583 402.16369629 5.7743988 C409.90614471 10.68532323 414.67007014 17.67228944 417.52697754 26.38768005 C417.80636581 29.21665266 417.94831045 31.82051369 417.93103027 34.64280701 C417.94132515 35.83456543 417.94132515 35.83456543 417.951828 37.05039978 C417.97002656 39.65910567 417.9662676 42.26720596 417.96057129 44.8759613 C417.96513733 46.70288283 417.97044415 48.52980263 417.97645569 50.35671997 C417.98537386 54.18050627 417.98297949 58.00408359 417.97302246 61.8278656 C417.96155078 66.70667836 417.98172315 71.58476538 418.0109396 76.46348286 C418.02936811 80.23582477 418.02899566 84.00799504 418.02330208 87.78037071 C418.02314959 89.57794905 418.02913359 91.37553956 418.04159355 93.17307472 C418.11999593 106.34038734 417.2891358 116.41408774 407.80432129 126.41111755 C400.41598143 132.82363894 391.02284709 135.63234049 381.35851002 135.64774227 C380.32356781 135.65345078 380.32356781 135.65345078 379.26771769 135.65927461 C376.96260646 135.66955667 374.65774304 135.66569055 372.35261536 135.66183472 C370.6804549 135.66628896 369.00829655 135.67160362 367.33614129 135.67770344 C362.74606883 135.69187148 358.15606412 135.69354696 353.56597292 135.69310653 C348.61352238 135.69475579 343.66109966 135.70782431 338.70866394 135.71929932 C327.88217211 135.74213971 317.0556999 135.75006884 306.22918725 135.75512576 C299.46752331 135.75838377 292.70586505 135.76490687 285.94420433 135.77212715 C267.2182461 135.79169151 248.49229315 135.80809679 229.76632404 135.81100368 C227.96919568 135.81128504 227.96919568 135.81128504 226.13576169 135.81157208 C223.7070177 135.81193833 221.27827371 135.81230202 218.84952972 135.81266319 C217.64392002 135.812846 216.43831032 135.81302881 215.19616699 135.81321716 C213.38554195 135.81348799 213.38554195 135.81348799 211.53833862 135.81376428 C191.97913195 135.81730596 172.42003537 135.84432869 152.86086688 135.88171505 C132.77348099 135.91980343 112.68614973 135.9391612 92.59872693 135.9394632 C81.32287158 135.94004763 70.04714759 135.94853079 58.77132607 135.97746086 C49.16998739 136.00198173 39.56882798 136.00925276 29.96746645 135.99421334 C25.07073065 135.98704751 20.17434879 135.98788798 15.27765274 136.01062393 C10.78981807 136.03126146 6.30260839 136.02856914 1.81478014 136.00774909 C0.19634311 136.00426333 -1.42213946 136.00912532 -3.04051682 136.02345353 C-14.80270363 136.12082932 -25.99608638 134.65665747 -34.94567871 126.1884613 C-41.45661382 118.51188564 -44.77620514 110.48454463 -44.7635498 100.42967224 C-44.77026703 99.65481979 -44.77698425 98.87996735 -44.78390503 98.08163452 C-44.80282515 95.53254187 -44.80680645 92.98371346 -44.80895996 90.43455505 C-44.81539302 88.65104568 -44.82212176 86.86753735 -44.82913208 85.08403015 C-44.84109059 81.34847062 -44.84481447 77.61300346 -44.84362793 73.87742615 C-44.84342505 69.11183298 -44.87070164 64.34683819 -44.90517235 59.58138657 C-44.92751182 55.89741851 -44.93146329 52.21359273 -44.93040848 48.5295639 C-44.93275482 46.77384127 -44.94152333 45.01811414 -44.95707321 43.2624588 C-45.05742856 30.75946035 -44.38138035 20.67680166 -35.38708496 11.2040863 C-24.63576629 1.0013043 -14.33874862 -0.05799175 0 0 Z " fill="#1867CF" transform="translate(411.4730224609375,293.61231994628906)"/>
<path d="M0 0 C1.68539961 -0.00489166 3.37079586 -0.01108273 5.05618644 -0.01845789 C9.67823853 -0.03484591 14.30011993 -0.03254178 18.9221909 -0.02708292 C23.9107594 -0.0244113 28.89928253 -0.03894707 33.88783264 -0.05117798 C43.65787033 -0.07222914 53.42784866 -0.07677298 63.19790635 -0.07499009 C71.14050762 -0.07368221 79.08309038 -0.07748794 87.02568817 -0.08491516 C89.31400355 -0.08701437 91.60231892 -0.08911197 93.8906343 -0.09120798 C95.02962006 -0.09225151 96.16860583 -0.09329504 97.34210631 -0.09437019 C118.88234131 -0.11327158 140.42254226 -0.11222278 161.96278211 -0.10540086 C181.66095961 -0.0998265 201.359007 -0.1206465 221.05715409 -0.15376133 C241.28921853 -0.18750937 261.52122067 -0.2026652 281.75331378 -0.1980443 C293.10963084 -0.19580061 304.46582767 -0.20102806 315.82212067 -0.22593689 C325.49114838 -0.24696443 335.15998996 -0.25052757 344.82902536 -0.2316373 C349.7601911 -0.2224882 354.69100993 -0.22131121 359.62214851 -0.24199295 C364.14140798 -0.26073719 368.66003724 -0.2561609 373.17927298 -0.23344713 C374.80911639 -0.22927005 376.43900844 -0.23343127 378.06880036 -0.24704307 C390.49212596 -0.34368728 401.46137707 1.45283369 410.83758545 10.35925293 C416.91495054 17.41116209 419.73537248 23.96188429 419.76849365 33.19543457 C419.77506485 33.98935608 419.78163605 34.78327759 419.78840637 35.60125732 C419.80813122 38.23152769 419.81980321 40.86174084 419.82977295 43.49206543 C419.83384848 44.39253538 419.837924 45.29300533 419.84212303 46.22076225 C419.86298524 50.99145147 419.87728352 55.76211195 419.88665771 60.53283691 C419.89769266 65.44308496 419.93205827 70.35287615 419.97182941 75.26296329 C419.99807701 79.05243222 420.006357 82.84179393 420.00993919 86.63134575 C420.01478802 88.44010931 420.02635301 90.24886863 420.04497719 92.0575428 C420.15983536 103.95625609 419.98500612 114.2420359 411.6539917 123.64440918 C403.53099386 131.8174416 394.44972249 134.99819742 383.15098417 135.1501826 C380.7755808 135.1488049 378.40149751 135.11869961 376.02630615 135.0880127 C374.29679163 135.0879972 372.5672753 135.0906998 370.83776855 135.09588623 C367.13923558 135.10148176 363.4414087 135.08865629 359.74297523 135.06115913 C353.88759162 135.01825559 348.03273412 135.02047513 342.17723083 135.02891541 C330.8077837 135.03938795 319.438674 135.00679492 308.06930542 134.96762085 C293.58700964 134.91861162 279.10488044 134.88269714 264.62249535 134.89895576 C258.80857109 134.90391128 252.99543135 134.88407038 247.18164599 134.84461796 C243.56030979 134.82491504 239.93918524 134.82588926 236.31781006 134.83222961 C234.64652206 134.83089916 232.97521431 134.82104432 231.30403709 134.80175591 C220.57421853 134.68337922 211.98859781 135.35711014 203.7789917 143.01940918 C200.5981182 147.33630893 198.64822484 152.47575376 196.5914917 157.39440918 C194.60088786 154.40850342 193.75043208 152.09493731 192.70306396 148.68664551 C192.33793198 147.50782806 191.97279999 146.32901062 191.59660339 145.11447144 C191.20035304 143.81846575 190.80411834 142.52245528 190.40789795 141.22644043 C189.9926198 139.88143854 189.57680239 138.53660305 189.16047668 137.19192505 C188.27827832 134.34087152 187.39842706 131.48910917 186.52026367 128.6368103 C184.25898772 121.29769885 181.97063246 113.96700675 179.68133545 106.63659668 C179.45749176 105.91972372 179.23364807 105.20285076 179.00302124 104.46425438 C174.04853711 88.57788041 174.04853711 88.57788041 168.86465454 72.76535034 C168.23744417 70.89440947 167.62621948 69.01813309 167.01556396 67.14172363 C164.34094748 59.33304016 161.14234511 53.56039719 154.1539917 48.95690918 C147.55235724 46.03132936 138.83280166 45.91746611 132.05633545 48.27722168 C129.98348234 49.48339054 128.33904691 50.75529415 126.5914917 52.39440918 C126.04106201 52.89069824 125.49063232 53.3869873 124.92352295 53.89831543 C118.45786207 60.52362226 116.58546649 69.86567758 114.40008545 78.59362793 C113.3372574 82.27501784 111.97391716 85.82434921 110.5914917 89.39440918 C110.28541992 90.18597412 109.97934814 90.97753906 109.66400146 91.79309082 C109.3422998 92.62445557 109.02059814 93.45582031 108.68914795 94.31237793 C103.73139772 107.12588513 103.73139772 107.12588513 99.5758667 120.21472168 C98.64708472 123.21483491 97.6083523 126.14401735 96.52996826 129.09313965 C96.16760071 130.08538544 95.80523315 131.07763123 95.43188477 132.09994507 C95.0158902 133.2357048 95.0158902 133.2357048 94.5914917 134.39440918 C80.29166159 134.48808649 65.99187946 134.55823606 51.69180489 134.60165787 C45.05113216 134.62250188 38.41075666 134.65076149 31.77020264 134.69616699 C25.35760348 134.73973772 18.94520269 134.76357031 12.53246689 134.77391815 C10.09012608 134.7812893 7.64779571 134.79568333 5.2055397 134.81732941 C1.77552368 134.84651164 -1.6536804 134.85035886 -5.08380127 134.84851074 C-6.08578049 134.86289185 -7.0877597 134.87727295 -8.12010193 134.89208984 C-18.80227841 134.83011187 -26.51162767 131.22487346 -34.2053833 123.90612793 C-40.5780776 116.64080447 -42.55073417 109.07444255 -42.58551025 99.64758301 C-42.59208145 98.87141632 -42.59865265 98.09524963 -42.60542297 97.29556274 C-42.62510707 94.73085423 -42.63680879 92.16620419 -42.64678955 89.60144043 C-42.65086508 88.72270452 -42.65494061 87.84396862 -42.65913963 86.93860435 C-42.67998138 82.28577283 -42.69429026 77.63297061 -42.70367432 72.98010254 C-42.71472373 68.1897276 -42.74911202 63.39981906 -42.78884602 58.60960865 C-42.81507297 54.91282831 -42.82337162 51.21615801 -42.8269558 47.51929283 C-42.83180748 45.75435938 -42.84338079 43.98943037 -42.86199379 42.22458839 C-43.03626052 24.60322034 -43.03626052 24.60322034 -38.4085083 17.39440918 C-37.93928955 16.59647949 -37.4700708 15.7985498 -36.9866333 14.97644043 C-27.03829374 1.72174096 -15.77250212 -0.05655331 0 0 Z " fill="#1866CF" transform="translate(409.40850830078125,449.6055908203125)"/>
<path d="M0 0 C2.84907628 2.84907628 3.60147092 6.30925844 4.8125 10.0625 C5.16538086 11.12307617 5.16538086 11.12307617 5.52539062 12.20507812 C7.22438497 17.3823286 8.76939091 22.60101159 10.29296875 27.83203125 C12.94496912 36.92337934 15.78404363 45.95188618 18.65673828 54.97558594 C19.50122929 57.62886226 20.34261316 60.28310919 21.18359375 62.9375 C22.52785514 67.17579029 23.88337998 71.41035154 25.24508667 75.64306641 C25.97057921 77.90814463 26.68519908 80.17642839 27.39868164 82.4453125 C27.82908162 83.78922537 28.25995915 85.13298543 28.69140625 86.4765625 C29.05693604 87.62979004 29.42246582 88.78301758 29.79907227 89.97119141 C32.07656759 95.71516518 35.53227779 99.50261269 40.76171875 102.67578125 C47.15108205 105.28856069 54.84195431 105.02979636 61.5078125 103.37890625 C68.20231246 100.42545039 73.3130369 94.17688924 76.13647461 87.55371094 C76.74279023 85.95385938 77.33076885 84.34696477 77.90234375 82.734375 C78.22860245 81.86089417 78.55486115 80.98741333 78.89100647 80.08746338 C79.92313544 77.31412287 80.93107848 74.53275915 81.9375 71.75 C82.94558965 69.01225618 83.95875126 66.27643958 84.97328186 63.54107666 C85.59832999 61.85061979 86.2190827 60.15856256 86.83372498 58.46429443 C90.33088256 48.88923355 94.19058815 39.45395627 98 30 C118.59275922 29.85974892 139.18543953 29.75398928 159.77857971 29.68912697 C169.34066752 29.65820778 178.90245832 29.61606441 188.46435547 29.54736328 C196.79992309 29.48750182 205.13527557 29.44883677 213.47105217 29.43546903 C217.88364168 29.42765661 222.29561582 29.4093367 226.70800781 29.36561966 C230.86466982 29.32477156 235.02046537 29.31235524 239.17730904 29.32135391 C240.69947589 29.31970868 242.22167291 29.30784551 243.7436657 29.28476715 C251.42544409 29.17403935 257.65014058 29.1780859 263.7950592 34.32082176 C265 36 265 36 265 40 C263.10742188 42.36254883 263.10742188 42.36254883 260.46875 44.95703125 C259.7647406 45.65610847 259.7647406 45.65610847 259.04650879 46.36930847 C257.54012008 47.85995503 256.02018238 49.33593731 254.5 50.8125 C253.50695092 51.79405096 252.51475392 52.7764648 251.5234375 53.75976562 C246.1824667 59.03430216 240.7402387 64.15900943 235 69 C234.39236816 69.51457764 233.78473633 70.02915527 233.15869141 70.55932617 C202.53664606 96.25895686 168.13119181 115.14917442 132.07958984 132.02636719 C130.29761784 132.86065979 128.51773651 133.69941535 126.73828125 134.5390625 C121.47088919 136.9886628 116.16074603 139.10067268 110.68359375 141.03515625 C108.09517234 141.96578229 105.5483912 142.96534512 103 144 C99.56627603 145.39190388 96.11468804 146.69261129 92.625 147.9375 C87.70903556 149.70113696 82.91104521 151.6829054 78.1171875 153.75390625 C70.72914012 156.70727356 64.51839993 158.4452811 56.51905823 158.38768005 C55.60779189 158.39306559 54.69652554 158.39845113 53.75764507 158.40399987 C50.7270429 158.4182215 47.6968811 158.41119006 44.66625977 158.40405273 C42.48413748 158.40975931 40.30201818 158.41672468 38.11990356 158.42485046 C32.20875338 158.44276466 26.29775178 158.44161677 20.38658261 158.43590808 C15.44623021 158.43281388 10.50590625 158.43891123 5.5655579 158.44494683 C-6.09149141 158.4589846 -17.74846742 158.45743681 -29.40551758 158.44604492 C-41.42015629 158.43456284 -53.43453753 158.44864271 -65.4491505 158.4754414 C-75.77638266 158.49761151 -86.10354481 158.50423284 -96.43079907 158.49836498 C-102.5936191 158.49499757 -108.75629604 158.49739645 -114.91909599 158.51461601 C-120.71485897 158.53010393 -126.5102917 158.52610876 -132.30604172 158.50731087 C-134.42881139 158.50363022 -136.55160564 158.50671808 -138.67435265 158.51719666 C-152.58806523 158.58061771 -164.43881088 158.24321784 -175 148 C-181.17530283 140.45240766 -184.4601139 132.59258324 -184.41992188 122.81494141 C-184.42839142 122.03979691 -184.43686096 121.2646524 -184.44558716 120.46601868 C-184.46880463 117.92769532 -184.46998298 115.38998358 -184.46875 112.8515625 C-184.4758609 111.07091027 -184.48356124 109.29026031 -184.49182129 107.50961304 C-184.50523117 103.78596622 -184.50685068 100.06253131 -184.50097656 96.33886719 C-184.49508439 91.5888651 -184.52566808 86.8398865 -184.56609344 82.09008217 C-184.59205979 78.41466889 -184.59483979 74.73949915 -184.59120178 71.06400681 C-184.59288474 69.31386112 -184.60244716 67.56370318 -184.62034607 65.81364822 C-184.72048798 54.81264872 -184.26506612 45.94725077 -176.6484375 37.34375 C-175.89820313 36.7353125 -175.14796875 36.126875 -174.375 35.5 C-173.61960937 34.8709375 -172.86421875 34.241875 -172.0859375 33.59375 C-168.12937199 30.57075612 -166.1381088 29.75001593 -161.18830872 29.7484436 C-159.36938614 29.74036934 -159.36938614 29.74036934 -157.51371765 29.73213196 C-156.16775467 29.73614635 -154.82179214 29.74031728 -153.47583008 29.74462891 C-152.0598124 29.74187914 -150.64379627 29.73819933 -149.2277832 29.73365784 C-146.17647532 29.72554095 -143.12524074 29.72337865 -140.07392311 29.72560501 C-135.24491513 29.7284372 -130.41605359 29.71408839 -125.58708191 29.69662476 C-111.85454522 29.64959286 -98.12201793 29.62566654 -84.3894043 29.61914062 C-76.80634934 29.61538492 -69.2234596 29.59731213 -61.64047545 29.56404626 C-56.84477466 29.54386799 -52.04950104 29.54144475 -47.25377524 29.55232644 C-44.26181026 29.55494203 -41.27009153 29.54088785 -38.27819061 29.52224541 C-36.89637082 29.51694303 -35.51450512 29.51838668 -34.13270378 29.52728081 C-24.74324491 29.58281487 -18.87556689 28.74171413 -11.3125 22.9375 C-6.27434348 16.53767955 -3.80394564 8.57065323 -1 1 C-0.67 0.67 -0.34 0.34 0 0 Z " fill="#1867CF" transform="translate(551,608)"/>
<path d="M0 0 C5.20948735 3.15630953 6.36008633 6.70547465 7.98828125 12.2578125 C8.24838486 13.09261139 8.50848846 13.92741028 8.776474 14.7875061 C9.63740414 17.56212379 10.47457344 20.34335757 11.3125 23.125 C11.91771499 25.08814609 12.52484989 27.05070121 13.13378906 29.01269531 C14.42614407 33.17947592 15.71122399 37.34840918 16.99267578 41.51855469 C19.98627392 51.22426532 23.11018284 60.88825178 26.22265625 70.55633545 C31.14324707 85.8527895 36.02406866 101.16163594 40.8125 116.5 C41.39789551 118.37510254 41.39789551 118.37510254 41.99511719 120.28808594 C42.69057808 122.52318351 43.38338005 124.75911125 44.07275391 126.99609375 C44.68200215 128.96981423 45.2986477 130.94126934 45.92333984 132.91015625 C46.3383374 134.23853516 46.3383374 134.23853516 46.76171875 135.59375 C47.00237061 136.35365234 47.24302246 137.11355469 47.4909668 137.89648438 C48 140 48 140 48 144 C48.66 144 49.32 144 50 144 C50.09063721 143.2169751 50.18127441 142.4339502 50.2746582 141.62719727 C51.22749317 136.862381 52.88286945 132.49970454 54.60546875 127.96484375 C55.14800041 126.53042686 55.14800041 126.53042686 55.70149231 125.06703186 C56.46742817 123.05118329 57.23668028 121.03659202 58.0090332 119.02319336 C59.18249005 115.95061803 60.33059571 112.86930017 61.47851562 109.78710938 C62.22761597 107.82492812 62.97821763 105.86331923 63.73046875 103.90234375 C64.23709297 102.52561745 64.23709297 102.52561745 64.75395203 101.12107849 C65.09062393 100.25990921 65.42729584 99.39873993 65.77416992 98.51147461 C66.05983322 97.75901962 66.34549652 97.00656464 66.63981628 96.23130798 C68.84864571 92.6078425 71.70548021 89.5588591 75.90612191 88.53574008 C78.13091351 88.35657309 80.30781917 88.33332442 82.53967285 88.36508179 C83.38586134 88.35728183 84.23204984 88.34948188 85.10388041 88.34144557 C87.93232995 88.32154107 90.75943169 88.33728383 93.58789062 88.35302734 C95.61843144 88.34625054 97.64896611 88.33734705 99.67948914 88.32647705 C105.18984486 88.30368483 110.69973246 88.31251994 116.21009636 88.32837248 C121.97686906 88.34103174 127.7436017 88.32929128 133.51037598 88.32144165 C143.19465328 88.3123452 152.87873992 88.32433301 162.56298828 88.34814453 C173.75916336 88.37535566 184.95488319 88.3665415 196.15104723 88.3390125 C205.7639609 88.31632244 215.37673753 88.3131209 224.98966932 88.32620585 C230.73100719 88.33400086 236.47213108 88.33504038 242.2134552 88.31852341 C247.61119204 88.30407957 253.00834196 88.31409931 258.4060154 88.34299469 C260.38693581 88.34960589 262.36790562 88.34770728 264.34880638 88.33668137 C267.05331331 88.32301571 269.75594003 88.34015343 272.46032715 88.36508179 C273.63611194 88.34835137 273.63611194 88.34835137 274.83564997 88.33128297 C278.8009565 88.40217554 281.29494264 88.83718271 284.4595108 91.32483864 C287 94 287 94 288.1875 97.4375 C287.93037273 102.32291805 286.45582393 103.62454407 283 107 C279.90621697 108.54689151 276.63881361 108.15387377 273.24264526 108.15821838 C272.43239305 108.16315636 271.62214083 108.16809434 270.78733552 108.17318195 C268.05728181 108.18860777 265.32725171 108.19693129 262.59716797 108.20532227 C260.64615672 108.2148968 258.69514757 108.22490662 256.74414062 108.23532104 C251.43452439 108.26242222 246.12489921 108.28340351 240.81525183 108.30332303 C235.27119653 108.3251505 229.72716895 108.352555 224.18313599 108.37937927 C213.67884183 108.42935006 203.17453233 108.47427258 192.6702081 108.51740164 C180.71390174 108.56673658 168.75762317 108.62166856 156.80134368 108.67708123 C132.2009217 108.79096859 107.60047308 108.89779287 83 109 C80.43966096 115.59347004 77.88038603 122.18735245 75.32177734 128.78149414 C74.45514802 131.01465736 73.58829398 133.24773339 72.72119141 135.48071289 C71.87886132 137.64998127 71.03698256 139.81942494 70.19555664 141.98904419 C69.35667859 144.15044125 68.51601973 146.311148 67.67358398 148.47116089 C65.64694388 153.68110235 63.66039093 158.8992172 61.765625 164.15869141 C61.4137915 165.12261307 61.06195801 166.08653473 60.69946289 167.07966614 C60.0449466 168.88004977 59.40264182 170.68494026 58.77514648 172.49491882 C57.0250141 177.27823527 55.5808789 180.31600346 51 183 C47.4375 183.5 47.4375 183.5 44 183 C40.53831282 180.20773783 39.25598763 177.6827778 37.99560547 173.46777344 C37.48161697 171.78433838 37.48161697 171.78433838 36.95724487 170.06689453 C36.41766647 168.23167236 36.41766647 168.23167236 35.8671875 166.359375 C35.47470469 165.0596882 35.08096693 163.7603798 34.68606567 162.46142578 C33.84286386 159.68037556 33.00711747 156.89723949 32.17724609 154.11218262 C30.20203312 147.48574117 28.18838012 140.87094509 26.17740631 134.25528717 C25.48846916 131.98776169 24.80096427 129.71980486 24.11346436 127.45184326 C19.5735785 112.49777963 14.81378508 97.61789952 10 82.75 C9.62164001 81.58094116 9.24328003 80.41188232 8.85345459 79.20739746 C8.12259817 76.94953534 7.39165457 74.69170144 6.66061401 72.43389893 C1.45909258 56.36382643 1.45909258 56.36382643 -0.5 50.140625 C-0.7990625 49.19219727 -1.098125 48.24376953 -1.40625 47.26660156 C-2 45 -2 45 -2 42 C-2.66 42 -3.32 42 -4 42 C-4.14695312 42.58523438 -4.29390625 43.17046875 -4.4453125 43.7734375 C-6.06994141 49.99184471 -7.96686368 56.09312045 -10 62.1875 C-10.2489502 62.93499512 -10.49790039 63.68249023 -10.75439453 64.45263672 C-11.91787651 67.90955731 -13.11647421 71.34495772 -14.4140625 74.75390625 C-15.71651508 78.18067761 -16.90835981 81.63774266 -18.0859375 85.109375 C-18.45976563 86.19347656 -18.83359375 87.27757812 -19.21875 88.39453125 C-19.9935775 90.64310161 -20.7564976 92.8958083 -21.5078125 95.15234375 C-22.07242188 96.77076172 -22.07242188 96.77076172 -22.6484375 98.421875 C-22.98020996 99.39737305 -23.31198242 100.37287109 -23.65380859 101.37792969 C-25.35506597 104.69158659 -26.84827295 105.99446498 -30 108 C-32.90008571 108.38545473 -35.4165242 108.54124083 -38.31225586 108.50793457 C-39.14604484 108.51417453 -39.97983381 108.5204145 -40.83888912 108.52684355 C-43.63116214 108.54279103 -46.42256434 108.53016256 -49.21484375 108.51757812 C-51.21730051 108.52299846 -53.21975328 108.53012062 -55.22219849 108.53881836 C-60.66018054 108.55706505 -66.0978593 108.54997853 -71.53584671 108.53730202 C-77.22434563 108.52718138 -82.91281843 108.5365651 -88.60131836 108.54284668 C-98.15450711 108.5501258 -107.70757221 108.54052838 -117.26074219 108.52148438 C-128.30860396 108.4997152 -139.35617046 108.50676637 -150.40402508 108.52879 C-159.88610456 108.5469364 -169.36809511 108.54950602 -178.85018635 108.53903532 C-184.51490939 108.53279624 -190.17949361 108.53197624 -195.84420776 108.54518127 C-201.16962393 108.55672802 -206.49465907 108.54873532 -211.82003403 108.52560425 C-213.77557619 108.5203109 -215.73115037 108.5218416 -217.68667984 108.53065491 C-220.35413554 108.54156925 -223.02036669 108.52789686 -225.68774414 108.50793457 C-226.46352279 108.51685746 -227.23930143 108.52578034 -228.03858852 108.53497362 C-231.69618973 108.48179839 -233.8256515 108.10873851 -236.95701599 106.15575409 C-239.6054555 103.36112414 -239.94566516 101.41915447 -240.4375 97.625 C-240 94 -240 94 -237.48043633 91.31101704 C-233.84640925 88.49972389 -230.34921401 88.31082842 -225.8755188 88.39872742 C-225.07409954 88.39445529 -224.27268028 88.39018317 -223.44697559 88.38578159 C-220.77022826 88.37756681 -218.09505918 88.40501028 -215.41845703 88.43237305 C-213.49641456 88.43378385 -211.5743694 88.43299091 -209.65232849 88.43016052 C-204.43980369 88.42872623 -199.22785443 88.45811853 -194.01546335 88.49303031 C-188.56623663 88.52429135 -183.11699665 88.52722436 -177.66769409 88.53315735 C-167.35109541 88.54869649 -157.03476172 88.58972609 -146.71827972 88.6399048 C-134.97233137 88.69579591 -123.22637035 88.72328421 -111.48032212 88.74838197 C-87.32006785 88.80064173 -63.16004877 88.88858558 -39 89 C-38.8517981 87.89406494 -38.70359619 86.78812988 -38.55090332 85.64868164 C-38.07943805 82.52612525 -37.48014746 80.28647447 -36.21875 77.4375 C-33.55878338 71.09007063 -31.55462158 64.56356927 -29.5 58 C-27.1783514 50.58340241 -24.81212305 43.26163523 -21.84863281 36.07421875 C-20.82899442 33.58203009 -19.95501007 31.06117393 -19.125 28.5 C-18.79628906 27.51 -18.46757813 26.52 -18.12890625 25.5 C-17.25725465 22.79757842 -16.41652882 20.09117194 -15.58984375 17.375 C-15.08080416 15.74997651 -14.5716897 14.12497646 -14.0625 12.5 C-13.83385254 11.72205078 -13.60520508 10.94410156 -13.36962891 10.14257812 C-11.2128034 3.34405038 -7.8280509 -1.30467515 0 0 Z " fill="#12B4AC" transform="translate(555,513)"/>
<path d="M0 0 C5.22348272 3.32877518 8.71721037 6.95122904 11.03515625 12.74609375 C11.82106266 19.4262982 11.51627634 24.89608596 8.28515625 30.87109375 C3.69362146 36.16901851 -0.24171726 39.38488435 -7.23046875 40.14453125 C-14.10396108 40.39983239 -18.47008037 39.42151493 -23.71484375 34.87109375 C-29.32376408 28.67176076 -30.16771182 24.57331501 -30.0234375 16.32421875 C-29.45646738 9.97989491 -26.82706911 6.71523147 -22.15234375 2.49609375 C-16.18817678 -2.47183152 -7.08488251 -2.94608784 0 0 Z " fill="#F9FAFD" transform="translate(445.71484375,498.12890625)"/>
<path d="M0 0 C5.78165297 2.22560789 10.20412798 6.31274804 13.1875 11.73046875 C15.27114416 17.55064787 14.91601909 23.67656312 12.4375 29.3125 C9.39762609 34.58089358 4.62299819 38.68526954 -1 41 C-7.2438127 41.81764214 -13.55348982 41.33102017 -19 38 C-23.71905939 33.75284655 -26.64650764 29.28419065 -27.3359375 22.87890625 C-27.46764715 11.69675726 -27.46764715 11.69675726 -23 7 C-15.57937884 0.02560773 -10.37858809 -1.15193381 0 0 Z " fill="#F9FAFD" transform="translate(443,342)"/>
<path d="M0 0 C4.15155876 3.18887847 6.79043412 6.3510853 8.75 11.25 C9.53914389 17.95772308 9.20391924 23.36765143 6 29.375 C1.89539112 34.53507974 -3.15587527 37.76980252 -9.6796875 38.796875 C-16.41014439 39.13246565 -20.89160559 37.78295263 -26 33.375 C-31.46862994 27.61854743 -32.52169974 22.13173896 -32.37890625 14.3828125 C-31.61990644 8.35776243 -28.35612129 4.39514554 -23.9375 0.4375 C-17.08424826 -4.37435761 -7.05032229 -4.4780654 0 0 Z " fill="#F9FBFD" transform="translate(448,681.625)"/>
<path d="M0 0 C3.20452995 1.74246316 5.02356979 3.14863594 7.0625 6.20703125 C7.80676249 11.23513014 7.59791366 15.17312901 5.25 19.70703125 C2.93887761 22.34831398 1.30410124 24.02605209 -2.2421875 24.54296875 C-9.20628642 24.64880612 -9.20628642 24.64880612 -12.9375 22.39453125 C-17.11927669 17.820713 -17.3685257 14.86142066 -17.2578125 8.875 C-16.82412715 5.26271838 -15.67656858 3.56567364 -12.9375 1.20703125 C-9.08403949 -1.58340567 -4.39116402 -1.79719011 0 0 Z " fill="#F3F7FC" transform="translate(729.9375,505.79296875)"/>
<path d="M0 0 C3.3304589 1.65906193 6.29447878 3.58895755 8 7 C8.51158525 11.06344859 8.94019368 15.21399502 6.98828125 18.921875 C3.80306525 22.78622114 1.20728018 24.88125113 -3.8125 25.375 C-8.15636697 25.26300343 -10.67638916 23.84880929 -14 21 C-16.74392056 16.59281253 -16.67778825 12.03849822 -16 7 C-12.0472737 0.45755647 -7.30007757 -1.22070834 0 0 Z " fill="#F4F8FC" transform="translate(775,350)"/>
<path d="M0 0 C3.80285865 2.0090574 7.09334467 4.08076405 9 8 C9.57729504 12.26556888 9.44900325 15.85254726 7.875 19.875 C5.05324591 23.07298797 2.24877341 24.63843251 -1.9921875 25.3203125 C-5.61487653 25.52537037 -7.77248492 25.13848744 -10.875 23.25 C-14.98711849 18.89599218 -15.43605907 15.25166194 -15.32421875 9.41015625 C-14.8638942 5.98822556 -13.51522593 4.29963513 -11 2 C-7.29211504 -0.47192331 -4.30054275 -0.66788732 0 0 Z " fill="#F4F8FC" transform="translate(774,505)"/>
<path d="M0 0 C2.81992717 1.82120296 4.50345478 3.00690956 6 6 C7.32361616 15.20514876 7.32361616 15.20514876 4.5078125 19.0234375 C-0.30477755 23.11713443 -3.57005523 24.43592846 -10 24 C-14.1574796 22.20472472 -16.3002055 20.20475482 -18 16 C-18.65674894 11.13845598 -18.74836555 7.33042764 -16.3125 3 C-11.175922 -1.44244584 -6.433833 -1.64342473 0 0 Z " fill="#F4F7FC" transform="translate(731,351)"/>
<path d="M0 0 C52.47 0 104.94 0 159 0 C159 0.66 159 1.32 159 2 C106.53 2.33 54.06 2.66 0 3 C0 2.01 0 1.02 0 0 Z " fill="#3778D4" transform="translate(649,638)"/>
<path d="M0 0 C0.66 0.33 1.32 0.66 2 1 C-8.25792955 28.13769258 -8.25792955 28.13769258 -11.94921875 29.96484375 C-14.65510274 31.33067091 -15.55318913 32.99904928 -17.125 35.5625 C-19.80555556 39.90277778 -19.80555556 39.90277778 -22 41 C-20.68699123 37.50136171 -19.14527665 34.38375415 -17.20703125 31.19140625 C-16.66199951 30.28535645 -16.11696777 29.37930664 -15.55541992 28.44580078 C-14.98025635 27.49431152 -14.40509277 26.54282227 -13.8125 25.5625 C-8.80920306 17.2054813 -4.13846093 8.81868402 0 0 Z " fill="#DFF4F3" transform="translate(931,625)"/>
<path d="M0 0 C0 0.33 0 0.66 0 1 C3.3 1.33 6.6 1.66 10 2 C10 2.33 10 2.66 10 3 C-0.89 3 -11.78 3 -23 3 C-23 2.67 -23 2.34 -23 2 C-20.29361246 1.46655836 -17.58572796 0.94799071 -14.875 0.4375 C-14.11445312 0.28603516 -13.35390625 0.13457031 -12.5703125 -0.02148438 C-8.08064398 -0.85362121 -4.52104773 -1.09054027 0 0 Z " fill="#E3F6F5" transform="translate(867,802)"/>
<path d="M0 0 C10.395 1.98 10.395 1.98 21 4 C19 8 19 8 17.10449219 8.85327148 C14.59279093 9.02839126 13.51062664 8.57060976 11.328125 7.34765625 C10.66425781 6.98349609 10.00039063 6.61933594 9.31640625 6.24414062 C8.63449219 5.85419922 7.95257812 5.46425781 7.25 5.0625 C6.55261719 4.67642578 5.85523438 4.29035156 5.13671875 3.89257812 C3.4183988 2.93926363 1.70836196 1.97104654 0 1 C0 0.67 0 0.34 0 0 Z " fill="#DBF3F2" transform="translate(692,894)"/>
<path d="M0 0 C0.33 0 0.66 0 1 0 C1.33 2.31 1.66 4.62 2 7 C1.34 7 0.68 7 0 7 C0.61875 7.886875 1.2375 8.77375 1.875 9.6875 C3.30488411 12.84760918 3.00192205 13.9943197 1.86328125 17.359375 C0.33159666 20.62982508 -1.26985286 23.8304467 -3 27 C-3.66 27 -4.32 27 -5 27 C-4.80664062 26.30777344 -4.61328125 25.61554687 -4.4140625 24.90234375 C-2.21407194 16.63604258 -0.98492164 8.48191338 0 0 Z " fill="#CCEEEC" transform="translate(738,756)"/>
<path d="M0 0 C0.66 0.33 1.32 0.66 2 1 C-3.63468283 7.7116188 -9.75936424 13.86092974 -16 20 C-16.66 19.34 -17.32 18.68 -18 18 C-12.06 12.06 -6.12 6.12 0 0 Z " fill="#23B8B4" transform="translate(808,680)"/>
<path d="M0 0 C0.66 0.33 1.32 0.66 2 1 C-0.31 6.94 -2.62 12.88 -5 19 C-5.99 18.67 -6.98 18.34 -8 18 C-6.65150163 13.64029169 -4.95092154 9.68658562 -2.875 5.625 C-2.33617187 4.56539062 -1.79734375 3.50578125 -1.2421875 2.4140625 C-0.83226562 1.61742187 -0.42234375 0.82078125 0 0 Z " fill="#C6ECEB" transform="translate(931,625)"/>
<path d="M0 0 C0.84119973 2.39957614 1.11193544 3.64922558 0.328125 6.10546875 C-0.02765625 6.79253906 -0.3834375 7.47960937 -0.75 8.1875 C-1.26820313 9.22970703 -1.26820313 9.22970703 -1.796875 10.29296875 C-3 12 -3 12 -6 13 C-7 10 -7 10 -6.07421875 7.95703125 C-5.61660156 7.24933594 -5.15898438 6.54164063 -4.6875 5.8125 C-4.23761719 5.09707031 -3.78773438 4.38164063 -3.32421875 3.64453125 C-2.88722656 3.10183594 -2.45023438 2.55914063 -2 2 C-1.34 2 -0.68 2 0 2 C0 1.34 0 0.68 0 0 Z " fill="#EEF9F8" transform="translate(919,653)"/>
<path d="M0 0 C-2.35438733 1.42944945 -3.48032433 2.08661261 -6.25 1.625 C-6.8275 1.41875 -7.405 1.2125 -8 1 C-8 1.66 -8 2.32 -8 3 C-10.88211302 3.96070434 -12.69850044 4.10581883 -15.6875 4.0625 C-16.89986328 4.04896484 -16.89986328 4.04896484 -18.13671875 4.03515625 C-19.05904297 4.01775391 -19.05904297 4.01775391 -20 4 C-16.76393248 2.21860706 -13.57342755 1.22819081 -10 0.3125 C-8.96875 0.04050781 -7.9375 -0.23148438 -6.875 -0.51171875 C-4.11053448 -0.98122716 -2.60249272 -0.93214283 0 0 Z " fill="#33BEB8" transform="translate(515,892)"/>
<path d="M0 0 C0.66 0.33 1.32 0.66 2 1 C-0.24460607 3.49560036 -2.38520597 4.8705484 -5.4375 6.25 C-6.19933594 6.60578125 -6.96117187 6.9615625 -7.74609375 7.328125 C-10.27972334 8.08338373 -11.54185126 7.87351072 -14 7 C-11.71296692 5.80274117 -9.42115138 4.61702982 -7.125 3.4375 C-6.14853516 2.92413086 -6.14853516 2.92413086 -5.15234375 2.40039062 C-3.46470143 1.53917109 -1.73420407 0.76313297 0 0 Z " fill="#25BBB4" transform="translate(437,914)"/>
<path d="M0 0 C0.33 0 0.66 0 1 0 C2.43484866 6.69596042 1.59058175 10.20575649 -2 16 C-2.99 16 -3.98 16 -5 16 C-4.54625 15.401875 -4.0925 14.80375 -3.625 14.1875 C-1.31474971 9.6558552 -0.74391192 4.99733773 0 0 Z " fill="#3378D5" transform="translate(457,514)"/>
<path d="M0 0 C0.66 0.66 1.32 1.32 2 2 C0.625 3.5 0.625 3.5 -1 5 C-1.66 5 -2.32 5 -3 5 C-3.33 5.99 -3.66 6.98 -4 8 C-6.5625 9.1875 -6.5625 9.1875 -9 10 C-9.66 9.34 -10.32 8.68 -11 8 C-10.113125 7.608125 -9.22625 7.21625 -8.3125 6.8125 C-4.87870392 4.93363045 -2.63458231 2.86704545 0 0 Z " fill="#2972D6" transform="translate(542,628)"/>
<path d="M0 0 C0.33 0.66 0.66 1.32 1 2 C1.66 2.33 2.32 2.66 3 3 C1.02 7.455 1.02 7.455 -1 12 C-1.66 12 -2.32 12 -3 12 C-2.01 8.04 -1.02 4.08 0 0 Z " fill="#B1E6E4" transform="translate(736,771)"/>
<path d="M0 0 C0.33 1.32 0.66 2.64 1 4 C-0.98 4.99 -0.98 4.99 -3 6 C-2.01 4.02 -1.02 2.04 0 0 Z M-5 6 C-4.34 6.33 -3.68 6.66 -3 7 C-4.32 8.32 -5.64 9.64 -7 11 C-7.99 10.34 -8.98 9.68 -10 9 C-7.625 7.4375 -7.625 7.4375 -5 6 Z " fill="#2B75D5" transform="translate(454,709)"/>
<path d="M0 0 C0.33 0 0.66 0 1 0 C1.64674116 3.35537 2.15019141 6.57778137 2 10 C-0.4375 12.625 -0.4375 12.625 -3 14 C-3.66 13.67 -4.32 13.34 -5 13 C-4.360625 12.525625 -3.72125 12.05125 -3.0625 11.5625 C-0.15149728 7.94579965 -0.19350218 4.52795106 0 0 Z " fill="#3D81D9" transform="translate(737,359)"/>
<path d="M0 0 C-0.66 1.65 -1.32 3.3 -2 5 C-5.10551666 5 -6.35261084 4.4606285 -9 3 C-2.25 0 -2.25 0 0 0 Z " fill="#26B6B3" transform="translate(939,787)"/>
<path d="M0 0 C0.66 0.99 1.32 1.98 2 3 C1.01 3.33 0.02 3.66 -1 4 C-1.2165625 5.175625 -1.2165625 5.175625 -1.4375 6.375 C-2 9 -2 9 -3 11 C-3.66 11 -4.32 11 -5 11 C-3.77472971 6.94718288 -2.30119506 3.55639236 0 0 Z " fill="#2FBCB8" transform="translate(743,765)"/>
<path d="M0 0 C0.33 0 0.66 0 1 0 C1.0810206 2.10353495 1.13919907 4.20795952 1.1875 6.3125 C1.22230469 7.48425781 1.25710938 8.65601563 1.29296875 9.86328125 C1 13 1 13 -2 16 C-1.34 10.72 -0.68 5.44 0 0 Z " fill="#64CBC8" transform="translate(923,480)"/>
<path d="M0 0 C0.99 0 1.98 0 3 0 C3 3.3 3 6.6 3 10 C2.67 10 2.34 10 2 10 C1.67 7.69 1.34 5.38 1 3 C0.34 3 -0.32 3 -1 3 C-0.67 2.01 -0.34 1.02 0 0 Z " fill="#23BAB3" transform="translate(738,733)"/>
<path d="M0 0 C2.45823172 3.68734758 3.01242616 6.69699971 4 11 C3.01 10.67 2.02 10.34 1 10 C-0.1577506 6.52674819 -0.06866652 3.63932552 0 0 Z " fill="#4284D8" transform="translate(555,619)"/>
<path d="M0 0 C-0.8125 1.9375 -0.8125 1.9375 -2 4 C-2.99 4.33 -3.98 4.66 -5 5 C-5 6.98 -5 8.96 -5 11 C-5.33 11 -5.66 11 -6 11 C-6.48951049 4.63636364 -6.48951049 4.63636364 -4.125 1.5625 C-2 0 -2 0 0 0 Z " fill="#31BEB8" transform="translate(321,603)"/>
<path d="M0 0 C2.45823172 3.68734758 3.01242616 6.69699971 4 11 C3.01 10.67 2.02 10.34 1 10 C-0.1577506 6.52674819 -0.06866652 3.63932552 0 0 Z " fill="#33C5BE" transform="translate(580,583)"/>
<path d="M0 0 C0.66 0.66 1.32 1.32 2 2 C0.35 3.98 -1.3 5.96 -3 8 C-3.99 7.67 -4.98 7.34 -6 7 C-4.02 4.69 -2.04 2.38 0 0 Z " fill="#1EB6B0" transform="translate(556,847)"/>
<path d="M0 0 C0.66 0.33 1.32 0.66 2 1 C-1.465 3.97 -1.465 3.97 -5 7 C-5.66 6.67 -6.32 6.34 -7 6 C-4.69 4.02 -2.38 2.04 0 0 Z " fill="#1FB6B1" transform="translate(842,763)"/>
<path d="M0 0 C-2.6224715 2.6224715 -4.35023127 2.64217954 -8 3 C-10.875 2.5625 -10.875 2.5625 -13 2 C-13 1.67 -13 1.34 -13 1 C-8.59085217 -0.10228696 -4.51617599 -0.07654536 0 0 Z " fill="#3EC4C1" transform="translate(583,879)"/>
<path d="M0 0 C0.66 0.33 1.32 0.66 2 1 C1.67 2.98 1.34 4.96 1 7 C0.34 7 -0.32 7 -1 7 C-1.625 4.625 -1.625 4.625 -2 2 C-1.34 1.34 -0.68 0.68 0 0 Z " fill="#DEF3F4" transform="translate(604,650)"/>
<path d="M0 0 C0.33 0 0.66 0 1 0 C1.25 2.3125 1.25 2.3125 1 5 C-1 6.8125 -1 6.8125 -3 8 C-3.66 7.34 -4.32 6.68 -5 6 C-4.360625 5.38125 -3.72125 4.7625 -3.0625 4.125 C-0.96116416 2.17402388 -0.96116416 2.17402388 0 0 Z " fill="#2B75D7" transform="translate(736,522)"/>
<path d="M0 0 C0.33 1.32 0.66 2.64 1 4 C0.360625 4.28875 -0.27875 4.5775 -0.9375 4.875 C-3.15206079 5.82823451 -3.15206079 5.82823451 -4 8 C-4.66 7.34 -5.32 6.68 -6 6 C-5.195625 5.38125 -4.39125 4.7625 -3.5625 4.125 C-0.96125481 2.25835959 -0.96125481 2.25835959 0 0 Z " fill="#307AD7" transform="translate(782,367)"/>
</svg>
